#amk 2#option smwvtable#spc{	#author "David Wise"	#game "Donkey Kong Country 2 (SMW)"	#comment "What could this fit for?"	#title "Flight of the Zinger"}"Strings=@1 $ED $00 $8B v185 p11,20 $E5 $00 $0D $10 y9"#0 $F4 $02 r=1/ y10 w220 t61 $FA $03 $80o2v200 (1)[@6 $ED $7F $FAq7f e16 q7e >e16 q7f <b16 q7c >e16 q7f <a16 q7c >d16 q7f <e16> q7c e16 q7c b16 q7f e16 q7c a16 q7f d16 q7c >e16< q7d e16<b16a16]8v220 (1)4 v230 (1)4 v240 (1)4$EF $00 $23 $23$F1 $04 $3A $01$F5 $7F $0A $01 $01 $01 $01 $01 $01v250 (1)16r4 @1 $ED $05 $E7 v180 $FA $03 $00o4d+1.. $FA $03 $80v255 (1)100#6 r=1/ v100 @6 $ED $7F $FA y6 $FA $03 $80r16..v130 (1)8 v150 (1)4 v160 (1)4 v170 (1)4 v180 (1)16r4.^64 o4 y8 @1 $ED $05 $E7 v160 $FA $03 $00a1^2^32. $FA $03 $80 r16v185 (1)100#2 r=1/ v1 y10 $DF $EE $00$F3 $0E $03 c1^1^16 o3 $ED $7F $E6 v140y8 c16c16c2..y11 <g16g16g4.y15 d16d16d4^16Stringso4e1^1^1^1d1^1^1^1c1^1^1^1<a1^1^1^1 $E5 $00 $00 $00r1^1^1^1^4^16 q7c y13$F4 $03p8,28o5g1^1 $DD $40 $F0 $B6 ^1^1d1^1 $DD $20 $50 $B4 ^1.. $DF q7fr1.. $F3 $0E $03 $ED $7F $E0 v250 y11o3d8d1r2..d8d2r1^=132 y12 v145 $EE $12(900)[@1 $ED $0B $A7 $DE $18 $0A $19>b8>e8f+8g=120<b8>e8f+8g=72f+16e16f+=144d4<a1r8>c8e8f+8g=120c8e8f+8g=72f+16e16f+=144g4a1b4g8e=144b4b8b8.a8.g8a4f+8d=144a4a8a8.g8.f+8g4>e2..<g4g8g8.a8.g8f+4>d+2..<f+4f+8f+8.g8.f+8]1#3 r=1/ @8 $ED $7A $E0 v255 p5,40 $FA $03 $40o1e1^1^1^1^1^1^1^1^1^1^1^1^1^1^1^1^1^1^1^1e1^1^1^1^1^1^1^1^1^1^1^1^1^1^1^1b1^1e1^1f+1^1a1^1b1>d+1<e1^1f+1^1a1^1b1>d+1#4 r=1/ @29 v1 y10c1... v235 o3 $ED $7F $E6y8 c16c16c2..y11 <g16g16g4.y15 d16d16d2Stringso4b1^1^1^1a1^1^1^1g1^1^1^1f+1^1^1^1 $E5 $00 $00 $00 $DF @3 $ED $0F $F5[o3e8<e8]64@1 $ED $08 $E5 v200o3f+1^1@3 $ED $0F $F5 o3[ [[e8<e8>]]8 [[f+8<f+8>]]8< [[a8<a8>]]8b8<b8>b8<b8>b8<b8>b8<b8o3d+8<d+8>d+8<d+8>d+8<d+8>d+8<d+8]2#5 r=1/ @29 v1 y10 $FA $03 $00c1^1 o3 $ED $7F $E6 v180y12 c16c16c2..y8 <g16g16g4.y5 d16d16d4.Stringso4g1^1^1^1f+1^1^1^1e1^1^1^1d1^1^1^1r1^1^1^1$F4 $03p8,28 $E5 $00 $60 $35 y13>g1^1 $DD $40 $F0 $B6 ^1^1d1^1 $DD $40 $50 $B4 ^1^1 $DF $E5 $00 $00 $00@29 v0 c1.. y11 v250o3d8d8d1r2.d8d8<a1r1^8 @3 $ED $7D $F4 y8 v255 $FA $03 $48o4b8>e8f+8g=120<b8>e8f+8g=72f+16e16f+=144d4<a1r8>c8e8f+8g=120c8e8f+8g=72f+16e16f+=144g4a1b4g8e=144b4b8b8.a8.g8a4f+8d=144a4a8a8.g8.f+8g4>e2..<g4g8g8.a8.g8f+4>d+2..<f+4f+8f+8.g8.f+8#1 r=1/ y10[r2]40 v240 $F3 $0E $03 $ED $7F $E0(140)[o2g+1g+8g+2..]6g+2>c2<g+8g+=72>c2<g+2>c2<g+8g+=72>c2<f+1^1(140)8#7 r=1/ @6 $ED $7F $FA y13 $FA $03 $80r8..v100 (1)8v120 (1)4 v130 (1)4 v140 (1)4 v150 (1)16r2^32o5 y12 @1 $ED $05 $E9 v135 $FA $03 $00 $DFc1^4^16.$F4 $03 r8y8 v95(900)