#spc
{
#author "Mahito Yokota"
#game	"Super Mario Galaxy"
#comment "Ported by el Pinciano"
#title	"To the Gateway"
}
#amk 2
#path "gateway"
#samples 
{ 
#gateway
"lowharpds.brr"
"harp.brr"
"brightharp.brr"
"space.brr"
"xylophone.brr"
}
#instruments 
{ 
"lowharpds.brr" $FE $EE $B8 $07 $30
"harp.brr" $FE $F0 $B8 $05 $42
"brightharp.brr" $9F $2D $B8 $05 $42
"space.brr" $88 $EA $B8 $09 $58	
"xylophone.brr" $FF $F2 $B8 $02 $A1
"harp.brr" $9E $4F $B8 $05 $42
}
(!100)[$FA $01 $B0]
(!101)[@33]
(!102)[$FA $01 $B9]
(!103)[@34]
$EF $FF $30 $D0
$F1 $08 $50 $00
$F5 $7F $01 $00 $00 $00 $00 $00 $00 
t45
#0 $F4 $02 w140 v200 y10 @30
o3
[c+2.c+2.
c+2.
c+2.
c+2.c+2.
c+2.
c+2.
c2.c2.
c2.
c2.
c+2.c+2.
c+2.
c+2.
c2.c2.
c2.
c4.c4.
e2.e2.
e2.
e2e4
d2.d2.
d1.
e2.e2.
e2.
e2e4
d2.d2.
d1.]1
/*1 ^1

#1 v200 y11 @31
r8o3[ $E6 $00 g+4>c+4g+4.
c4f4.<g+4>c+4
g+4.c4f4. $E6 $01 
<g+4>d+4g+4.
c4f4.<g+4>d+4
g+4.c4f4.
<g+4>c+4g+4.
c4f4.<g+4>c+4
g+4.c4f4.
<g+4>d+4>c4.
<c4g+4.<g+4>d+4
>d+4.<c4.d+4.
c+4f+4.<b4
>d+4b4<b4>d+4
b4.c+4.<b4.
>d4f4.<a4
>e4a4.d4
f4>c+4<f4<a4.
b4>d+4b4.
c+4f+4.<b4>d+4
b4.c+4.<b4.
>d4f4.<a4
>e4a4.d4
f2....r32]1/r8 *1
<*1 r64
#2 v200 y09 @31
r4o4[ $E6 $00 c4f4.<g+4
>c+4g+4.c4
f4.<g+4>c+4g+4. $E6 $01 
c4f4.<g+4
>d+4g+4.c4
f4.<g+4>d+4g+4.
c4f4.<g+4
>c+4g+4.c4
f4.<g+4>c+4g+4.
c4g+4.<g+4
>d+4>c4.<c4
g+4.<g+4.g+4.
b4>d+4b4.
c+4f+2c+4
f+4.<b4>d+2
<a4>e4a4.
d4f4.<a4>e4
a4a4d4<f4.
>c+4f+4.<b4
>d+4b4.c+4
f+4.<b4>d+2
<a4>e4a4.
d4f4.<a4>e4
a2..]1
/r4 *1

#3 y10 v240 @32 
(3)[r2]6
o5[ y09 f1^8
 y13 d+8 y12 f8 y11 d+8 y10 c+4 y09 c4.
c+8 y10 c4< y11 a+4.f8
g+1.
 y08 d+1.
> y09 f1^8
 y13 d+8 y12 f8 y11 g8 y10 g+4. y09 g8
 y11 f8 y08 d+8 y09 c+4 y12 d+4. y13 c+8
 y12 c4 y11 d+1^1^4
 y09 <g+4> y08 d+4
d+1^8
 y10 c+8<b8 y09 a+8 y11 b1^8
 y10 b8>c+8d+8
e4< y11 a1^4 y08 
>f4.< y11 a2.
 y09 a8b8>c8
c+1^4
< y11 b8> y10 c+8 y11 d+4 y10 c+4
<b4 y09 a+4 y11 b4>c+8d+8
e4< y08 a1^4]1
>r64 v200 y10 @35 a4.f4.
c4.<a4^16../r1^1^1 v240 @32 
>*1
r64 v200 y10 @35 a4.f4.
c4.<a1^1^1^4^16..

#4 v170 y10 @35
(3)51
o5c4.c4.
<f4.c4./
r1
r1
r1 (!101, -1) (!100, 3) v120 y10 $EB $01 $0C $02 
c+1
r4<g+4r1
g4r4
g+4.r1
r1
r2
r8
>c+1
r4<g+4r1
g4r4
g+4.r1
r1
r2
r8
>d+1
r4<b4r1
g4r4
a4.r1
r1
r2
r8
>d+1
r4<b4r1
g4r4
a4.r1
r8 $EB $00 $00 $00 (!100, 0) v170 y10 @35
>>c4.c4.
<f4.c4.

#6
(3)54/ v180 y09 (!103, -1) (!102, 3)
o4(1)[ q3f f8r8f8g+8r8g+8f8r8
>c8r8 q3c c8r8< q3f f8r8f8g+8
r8g+8f8r8>c8 q3c c8 q3a c8r8]1
 $E6 $00 (1)1
< q3f d+8r8d+8g+8r8g+8d+8r8
>c8r8 q3c c8r8< q3f d+8r8d+8g+8
r8g+8d+8r8>c8 q3c c8 q3a c8r8 $E6 $01
<[ q3f d+8r8d+8g+8r8g+8d+8r8
b8r8 q3c b8r8 q3f d+8r8d+8g+8
r8g+8d+8r8b8 q3c b8 q3a b8r8
 q3f f8r8f8a8r8a8f8r8
>d8r8 q3c d8r8< q3f f8r8f8a8
r8a8f8r8>d8 q3c d8 q3a d8r8]2

#7
(3)54/ v180 y08 (!103, -1) (!102, 3)
o4(2)[ q3f c+8r8c+8f8r8f8c+8r8
g+8r8 q3c g+8r8 q3f c+8r8c+8f8
r8f8c+8r8g+8 q3c g+8 q3a g+8r8]1
 $E6 $00 (2)1
 q3f c8r8c8d+8r8d+8c8r8
g+8r8 q3c g+8r8 q3f c8r8c8d+8
r8d+8c8r8g+8 q3c g+8 q3a g+8r8 $E6 $01 
[ q3f <b8r8b8>d+8r8d+8<b8r8
>f+8r8 q3c f+8r8< q3f b8r8b8>d+8
r8d+8<b8r8>f+8 q3c f+8 q3a f+8r8
 q3f d8r8d8f8r8f8d8r8
a8r8 q3c a8r8 q3f d8r8d8f8
r8f8d8r8a8 q3c a8 q3a a8r8]2

#5 (!101, -1) (!100, 3) v120 y10 $EB $01 $0C $02 
(3)54/
(3)8
o4c4r4<f1
r4a+4
r4.d+1..
^1...
>c4r4<f1
r4a+4
r4.>d+1.
^1
^1
r8
c+4r4<g+1
r4g+4
r4.f1.
^1
^1
r8
>c+4r4<g+1
r4g+4
r4.>f1...
^2.

